<svg xmlns="http://www.w3.org/2000/svg" xmlns:xlink="http://www.w3.org/1999/xlink" width="607" height="360" viewBox="0 0 607 360"><defs><clipPath id="b"><rect width="607" height="360"></rect></clipPath></defs><g id="a" clip-path="url(#b)"><path d="M259.948,852.1a3.935,3.935,0,0,1-.505-.034,9.29,9.29,0,0,1-3.569-1.5,5.646,5.646,0,0,1-2.673-3.827,10.459,10.459,0,0,1,.714-5.488,35.59,35.59,0,0,1,4.971-8.589c-1.093-3.449-2.462-7.313-4.1-11.562q-.328-.851-.659-1.7-.507-.078-1.027-.173-7.807-1.421-15.089-2.776a6,6,0,0,1,.68,1.248,4.19,4.19,0,0,1-.243,3.665,10.017,10.017,0,0,1-3.638,3.444.5.5,0,0,1-.245.075c-3.475.128-27.562-3.835-51.381-9.594a302.5,302.5,0,0,1-33.946-9.968c-3.648-1.367-6.836-2.724-9.521-4.054a37.913,37.913,0,0,1-2.989,13.171A46.983,46.983,0,0,1,125.721,830.8a29.143,29.143,0,0,1-10.045,6.346,20.722,20.722,0,0,1-11.683.753c-6.828-1.54-14.683-5.093-23-8.855-12.6-5.7-26.89-12.162-40.294-12.59-15.29-.489-27.19,6.98-36.38,22.831a.5.5,0,1,1-.865-.5c9.392-16.2,21.585-23.83,37.277-23.329,6.086.194,12.834,1.609,20.63,4.324,6.846,2.385,13.556,5.419,20.045,8.354,8.268,3.74,16.078,7.272,22.807,8.79,8.991,2.029,16.287-2.607,20.824-6.853A45.964,45.964,0,0,0,135.8,814.064a36.341,36.341,0,0,0,2.922-13.3q-1.043-.539-1.973-1.071c-3.529-2.021-5.9-4.014-7.061-5.924-2.422-4-3.149-7.037-2.045-8.542a2.521,2.521,0,0,1,2.806-.758,10.654,10.654,0,0,1,5.285,3.964,19.5,19.5,0,0,1,3.741,8.986,20.893,20.893,0,0,1,.238,2.733,100.4,100.4,0,0,0,9.873,4.232,301.541,301.541,0,0,0,33.83,9.933c14.361,3.472,27.074,5.886,33.374,7.016,9.906,1.777,15.888,2.553,17.58,2.553h.026c2.527-1.6,3.735-3.233,3.592-4.867a4.961,4.961,0,0,0-1.49-2.849c-28.578-5.33-50.927-9.866-66.577-13.514-7.865-1.833-13.848-3.4-17.781-4.664a33.718,33.718,0,0,1-4.121-1.548c-1.094-.531-1.561-.971-1.563-1.472,0-.756.989-.944,1.314-1.006,2.32-.441,8.672-.056,17.427,1.056,9.229,1.173,19.692,2.962,29.461,5.038a216.836,216.836,0,0,1,28.735,7.861,58.712,58.712,0,0,1,10.1,4.655,18.632,18.632,0,0,1,3.493,2.669q7.835,1.461,16.288,3l.42.074c-1.771-4.461-3.606-8.769-5.288-12.536-16.983-3.272-37.714-7.812-56.28-12.385-14.714-3.624-27.277-7.08-36.331-9.994-10.72-3.45-16.522-6.094-17.738-8.084a.5.5,0,0,1,.06-.6c3.653-3.929,8.413-11.6,13.4-21.6a255.79,255.79,0,0,0,13.19-31.716c3.75-11.155,7.739-27.2,11.6-42.712,3.657-14.709,7.112-28.6,10.276-38.167a150.47,150.47,0,0,1,5.907-15.076,119.361,119.361,0,0,1,7.5-14.076,61.509,61.509,0,0,1,8.561-11.005c3.134-3.085,6.216-5.052,9.158-5.848l.34-.092c7.085-1.919,15.193-4.116,25.565-3.246,1.177-.147,2.479-.23,3.805-.314,3.384-.215,7.219-.459,7.46-1.954.732-4.554-2.77-20.366-2.806-20.525a.5.5,0,0,1,.443-.607c.7-.064,8.54-.771,17.6-1.456q.076-.879.183-1.706c-1.648.238-3.42.472-5.138.675-4.323.513-11.853,1.265-13.714.544a.956.956,0,0,1-.646-.62c-.3-1.137.763-10.315,3-19.886,2.072-8.856,5.7-20.435,11.2-25.307,2.479-2.195,6.643-4.21,12.376-5.989,2.121-.658,4.432-1.274,6.885-1.836,3.63-3.463,8.889-6.849,15.57-6.849h.215a39.8,39.8,0,0,1,11.314,1.622,15.436,15.436,0,0,1,4,1.774,46.471,46.471,0,0,1,11.927,1.345c5.3,1.577,10.409,7.573,13.763,12.325a82.87,82.87,0,0,1,9.839,18.713,32.762,32.762,0,0,1,1.662,6.207c.266,1.882.127,3.242-.414,4.042q-.05.074-.1.145,5.336-.333,12.689-.5c10.6-.24,20.546-.119,20.645-.117a.5.5,0,0,1,.431.257,12.5,12.5,0,0,1,1.129,3.245,11.317,11.317,0,0,1-.747,7.2,13.36,13.36,0,0,1-5.239,5.537,33.8,33.8,0,0,1-11.641,4.045,109.675,109.675,0,0,1-21.565,1.348c.539,5.54.581,12.256-3.246,18.384a46.433,46.433,0,0,0-2.931,6.579,66.336,66.336,0,0,1-5.3,11.31c-2.583,4.01-5.373,5.99-8.527,6.054-6.021.123-12.308-1.7-18.388-3.464-3.324-.964-6.762-1.961-10.153-2.645-.479-.1-1.072-.221-1.759-.366-2.022-.425-4.862-1.022-8.266-1.644q.771.273,1.558.547c7.353,2.56,14.484,4.761,20.214,6.528,4.178,1.289,7.786,2.4,10.285,3.287,3.607,1.277,4.256,1.839,4.233,2.484-.026.74-1.214,2.8-3.9,7.389-4.614,7.884-12.043,20.575-14.241,29.7,6.814,1.549,18.425,1.317,29.753,1.09,6.88-.138,13.993-.28,20.091-.03,7.913.326,12.306-.266,13.827-1.863.861-.9.752-2.11.627-3.506-.146-1.626-.312-3.468,1.146-5.082a2.617,2.617,0,0,1,1.94-.97h.022c1.841,0,3.8,2.092,6.505,4.982,4.011,4.284,9.5,10.152,17.745,12.482a26.567,26.567,0,0,0,8.144.47,111.828,111.828,0,0,0,12.135-1.5c8.41-1.438,18.8-3.825,30.054-6.9,9.991-2.733,19.868-5.794,27.812-8.618,11.355-4.036,13.211-5.613,13.51-6,.447-.579.971-1.176,1.536-.913.758.353.512,1.648-.458,6.085-.214.977-.439,2.009-.652,3.054a22.462,22.462,0,0,1,9.4.625c8.137,2.465,11.076,2.594,16.959,1.756a12.3,12.3,0,0,1,6.693,1.158c2.438.955,4.742,1.858,8.535.613.656-2.4,1.2-5.056,1.711-7.589,1.061-5.217,2.063-10.144,3.886-12.169a18.716,18.716,0,0,1,4.881-3.384q-.86-.682-1.892-1.36a47.218,47.218,0,0,0-7.742-3.987,57.278,57.278,0,0,1-9.711-2.388,16.712,16.712,0,0,1-1.555-.662c-.3-.156-.764-.391-.732-.83a.572.572,0,0,1,.482-.515c1.017-.224,6.608,1.294,11.683,3.382l.119.049c3.068.528,6.416.961,9.669,1.229a61.908,61.908,0,0,0,9.9.151c.512-.044.973-.1,1.388-.158,1.277-.487,2.5-.937,3.607-1.336.02-.026.038-.051.054-.075.349-.53.053-1.286-.879-2.245-1.763-1.815-4.851-3.576-8.929-5.091a75.025,75.025,0,0,0-27.219-4.24c-4.5.209-8.19.992-10.664,2.265a37.231,37.231,0,0,0-9.24,7.092c-4.313,4.148-8.772,8.437-19.589,10.736-4.5.956-11.778,1.3-22.9,1.067-9.766-.2-21.373-.827-32.6-1.434-16.9-.913-34.37-1.856-46.321-1.4a218.289,218.289,0,0,1-34.875-1.215,68.9,68.9,0,0,1-10.528-2.054c-2.772-.841-4.274-1.731-4.592-2.721a2.6,2.6,0,0,1,.579-2.437c1.128-1.489,3.637-2.944,6.883-3.991a33.122,33.122,0,0,1,11.13-1.522c3.214.121,8.823.68,15.318,1.326,13.217,1.315,31.317,3.116,41.867,2.439,15.778-1.012,24.175-.7,40.9-.066h.03c4.8.181,10.129.686,15.284,1.174,6.516.617,13.254,1.256,18.771,1.213,6.082-.045,10.029-.919,12.066-2.67,2.761-2.373,6.137-6.7,9.4-10.889,2.207-2.831,4.49-5.758,6.508-7.97,2.35-2.576,4.076-3.9,5.433-4.156,2.009-.384,21.2.615,57.027,2.969,26.66,1.751,53.081,3.638,53.345,3.657a.5.5,0,0,1,.448.37c.117.439,2.827,10.792-.07,14.741a3.68,3.68,0,0,1-2.934,1.55c-6.577.293-28.078-1.036-28.294-1.049a.5.5,0,0,1-.445-.652c.006-.019.621-1.937,1.084-4.03.809-3.665.466-4.674.281-4.938a.219.219,0,0,0-.194-.113c-2.292-.083-32.22-2.133-35.575-2.363a28.294,28.294,0,0,0-1.743,2.46c-1.521,2.44-1.4,3.345-1.273,3.621.041.092.167.371.911.4,4.13.153,30.788,1.671,31.056,1.687a.5.5,0,0,1,.335.155c.11.116,2.677,2.861,1.879,5.047-.448,1.227-1.814,1.977-4.059,2.231-6.861.779-20.862.307-22.118.262-.419.137-2.353.777-4.986,1.723A7.264,7.264,0,0,1,555,626.362c-3.32,1.269-7.021,2.789-10.094,4.321a12.505,12.505,0,0,1,2.487,3.049,9.672,9.672,0,0,1,.639,8.522,18.611,18.611,0,0,1-6.442,7.739,32.073,32.073,0,0,1-8.119,4.4c-.26.917-.54,1.8-.844,2.617a14.712,14.712,0,0,1-2.071,3.982,5.086,5.086,0,0,1-3.039,2.028c-3.829.715-12.889.976-20.627.6a79.959,79.959,0,0,1-11.127-1.2c-3.517-.7-5.525-1.622-6.138-2.813-.908-1.766-.51-5.313.176-8.958-.86.131-1.762.294-2.713.49-5.393,1.113-12.036,3.207-21.231,6.106q-2.183.688-4.551,1.432c-11.181,3.508-30.727,7.834-48.638,10.765-12.611,2.064-35.381,5.215-46.191,3.133-9.862-1.9-36.257-6.327-61.71-9.888a12.9,12.9,0,0,1-4.26,1.936,51.61,51.61,0,0,1-13.349,1.4h-.126a156.591,156.591,0,0,1-26.347-2.529,82.727,82.727,0,0,1-9.8-2.3c-3.7-1.18-4.254-2-4.328-2.589-.132-1.056,1.414-1.447,1.923-1.576,2.98-.753,10.191-.608,21.431.43,9.08.839,20.7,2.245,34.564,4.183a3.651,3.651,0,0,0,1.343-2.329q.112-.913.315-1.891a9.792,9.792,0,0,1-4.827-2.523,3.917,3.917,0,0,1-.95-3.3c.926-6.147,7.27-17.307,11.061-23.975.827-1.455,1.629-2.865,2.178-3.888a7.325,7.325,0,0,1-2.99.481c-3.267.01-8.632-.959-15.517-2.795-6.447-1.719-13.8-4.075-21.259-6.813-7.6-2.788-14.6-5.715-20.254-8.465q-1.84-.9-3.44-1.74c-13.847,1.64-22.714,6.828-26.414,15.479a61.794,61.794,0,0,0-3.612,37.3,63.155,63.155,0,0,0,5.267,15.144,49.806,49.806,0,0,0,7.414,11.087,4.647,4.647,0,0,1,1.308,4.078c-.451,2.514-3,5.293-7.8,8.5a150.363,150.363,0,0,1-13.675,7.7c-3.153,1.635-6.131,3.18-8.2,4.469a14.418,14.418,0,0,0-2.332,1.709c-.475.462-.61.774-.577.913.014.058.139.362,1.252.624a22.966,22.966,0,0,0,4.522.4c12.3.183,34.98-1.894,56.438-5.165,10.928-1.666,20.7-3.514,28.272-5.344a82.715,82.715,0,0,0,13.229-4.1c4.9-8.761,9.345-15.448,12.118-18.133,1.951-1.89,2.731-1.961,3.193-1.811a.963.963,0,0,1,.645.816c.278,1.579-1.633,5.294-3.354,8a42.44,42.44,0,0,1-9.069,10.286,14.591,14.591,0,0,1-2.823,1.625c-1.152,2.068-2.33,4.251-3.518,6.525-6.522,12.488-11.77,24.731-14.04,32.75a19.891,19.891,0,0,1-4.024,6.734,72.282,72.282,0,0,1-7.866,7.886c-1.628,1.43-3.4,2.9-5.3,4.4a10.028,10.028,0,0,1,4.96,2.548,4.6,4.6,0,0,1,1.219,2.482,6.134,6.134,0,0,1-.43,3.094c-1.478,3.86-2.869,7.359-4.1,10.447-4.331,10.9-6.946,17.479-5.788,20.562a1.46,1.46,0,0,1-.44,1.625c-2.1,2.066-10.65,2.927-17.329,3.036-.8.013-1.6.017-2.391.012.695,1.471,1.443,3.1,2.223,4.838,7.21,1.385,13.727,2.536,19.088,3.358a1.727,1.727,0,0,1,2.191-.184,2.929,2.929,0,0,1,.983,2.222,7.089,7.089,0,0,1-.607,3.212,9.857,9.857,0,0,1-5.364,5.048,19.986,19.986,0,0,1-10.145,1q.23.59.458,1.181c1.537,3.993,2.841,7.652,3.9,10.948,6.161-7.967,16.422-17.648,29.691-27.888a385.009,385.009,0,0,1,33.955-23.223c13.386-8.2,27.59-15.944,42.22-23.02a493.464,493.464,0,0,1,48.544-20.384,435.371,435.371,0,0,1,52.927-15.311,340.084,340.084,0,0,1,72.828-8.307,270.357,270.357,0,0,1,38.406,2.67.5.5,0,0,1-.142.99,268.317,268.317,0,0,0-38.091-2.65c-71.39,0-137.752,26.341-174.037,43.892-14.6,7.062-28.775,14.791-42.133,22.973a384,384,0,0,0-33.867,23.162,205.032,205.032,0,0,0-23.64,20.9,90.209,90.209,0,0,0-6.293,7.357q1.166,3.726,1.891,6.785c1.481,6.248,1.492,10.056.035,11.642A2.562,2.562,0,0,1,259.948,852.1Zm-.693-18.256q-.17.235-.335.467a32.34,32.34,0,0,0-4.066,7.283c-1.414,3.858-.892,6.592,1.551,8.124,2.352,1.475,3.959,1.771,4.778.88s1.446-3.486-.272-10.734Q260.264,837.132,259.255,833.844ZM254.847,818.5c4.073.558,7.489.27,10.173-.861a8.667,8.667,0,0,0,4.835-4.522c.884-2.052.532-3.8-.05-4.232-.356-.262-.812.011-1.131.285a.5.5,0,0,1-.4.115c-5.243-.8-11.609-1.919-18.658-3.267C251.306,809.83,253.122,814.125,254.847,818.5ZM147.59,795.037a6.214,6.214,0,0,0,1.324.719,43.57,43.57,0,0,0,4.353,1.543c4.115,1.273,10.2,2.842,18.08,4.662,15.285,3.53,36.677,7.869,63.748,12.931q-.3-.235-.625-.472a43.677,43.677,0,0,0-9.086-4.662c-15.186-6.077-38.166-10.292-47.341-11.823-7.844-1.308-15.323-2.3-21.06-2.8C150.089,794.535,148.13,794.855,147.59,795.037Zm-8.452-19.943c.556.626,1.913,1.6,5.1,3.017,2.878,1.274,6.87,2.736,11.865,4.343,9.033,2.907,21.573,6.356,36.264,9.975,18.3,4.507,38.706,8.982,55.54,12.241-.755-1.673-1.474-3.224-2.137-4.618-7.911-.134-14.923-1.167-19.2-2.867-2.427-.964-3.588-1.971-3.551-3.079.035-1.06,1.165-1.955,3.357-2.66a30.487,30.487,0,0,1,9.222-1.181c2.146.044,5.943.373,7.257,2.081l0,0a56.718,56.718,0,0,1,3.555,6.712q1.409.015,2.852-.008c8.289-.136,15.134-1.267,16.645-2.75.3-.3.236-.474.2-.559-.62-1.651-.382-4.069.771-7.843,1.055-3.454,2.807-7.861,5.024-13.441,1.226-3.085,2.615-6.582,4.091-10.436.712-1.86.52-3.344-.589-4.538a9.93,9.93,0,0,0-5.234-2.439c-4.917,3.824-10.567,7.775-16.472,11.5a183.72,183.72,0,0,1-24.642,13.247,67.573,67.573,0,0,1-10.212,3.563,17.152,17.152,0,0,1-7.408.543c-1.913-.429-4.055-1.769-3.4-5.714a13.62,13.62,0,0,1,3.2-6.44,30.122,30.122,0,0,1,6.57-5.625,75.232,75.232,0,0,1,19.314-8.516,107.165,107.165,0,0,1,12.232-2.9,84.337,84.337,0,0,1,11.469-1.266,41.394,41.394,0,0,1,9.091.536c2.122-1.66,4.1-3.294,5.9-4.873,6.6-5.8,10.61-10.689,11.588-14.14,2.287-8.081,7.564-20.4,14.116-32.941.977-1.871,1.949-3.683,2.906-5.421a93.253,93.253,0,0,1-12.206,3.655c-7.595,1.837-17.4,3.69-28.356,5.361-10.421,1.589-21.248,2.921-31.311,3.853a253.224,253.224,0,0,1-25.292,1.323,23.518,23.518,0,0,1-4.736-.423c-1.192-.28-1.845-.728-2-1.368-.133-.564.146-1.173.853-1.86a15.337,15.337,0,0,1,2.5-1.84c2.1-1.31,5.095-2.864,8.265-4.508a149.657,149.657,0,0,0,13.58-7.646,31.145,31.145,0,0,0,5.052-4.032,7.851,7.851,0,0,0,2.317-3.81,3.65,3.65,0,0,0-1.064-3.229,50.819,50.819,0,0,1-7.568-11.312,64.489,64.489,0,0,1-6.559-33.575A62.552,62.552,0,0,1,222.8,619.48a22,22,0,0,1,5.866-8.012,29.414,29.414,0,0,1,8.692-5.084,50.6,50.6,0,0,1,11.28-2.8,32.371,32.371,0,0,1-7.571-5.278,10.8,10.8,0,0,1-2.007-2.753,2.73,2.73,0,0,1-.193-2.166,2.676,2.676,0,0,1,1.418-1.375c-8.7-.212-15.731,1.694-21.961,3.381l-.341.092c-5.352,1.448-11.277,7.127-17.134,16.422a118.354,118.354,0,0,0-7.44,13.957,149.467,149.467,0,0,0-5.867,14.975c-3.152,9.53-6.6,23.4-10.255,38.095-3.862,15.534-7.856,31.6-11.619,42.79a256.82,256.82,0,0,1-13.243,31.844C147.517,763.4,142.815,771.014,139.139,775.094Zm-9.616,10.258a1.256,1.256,0,0,0-1.07.469c-.309.421-1.07,2.2,2.094,7.433,1.224,2.023,3.953,4.155,8.151,6.375a19.436,19.436,0,0,0-.207-2.052,18.5,18.5,0,0,0-3.544-8.529,9.666,9.666,0,0,0-4.731-3.6A2.984,2.984,0,0,0,129.522,785.351Zm105.452,5.905a29.009,29.009,0,0,0-8.287,1.14c-1.942.625-2.649,1.309-2.664,1.742-.007.221.181,1.028,2.921,2.116,4.084,1.624,10.763,2.623,18.349,2.788a54.174,54.174,0,0,0-3.227-6.09c-.764-.99-3.188-1.621-6.484-1.689Q235.28,791.257,234.974,791.257Zm27.98-34.855q-1.009,0-2.082.038a83.348,83.348,0,0,0-11.332,1.252,106.155,106.155,0,0,0-12.117,2.872,74.232,74.232,0,0,0-19.052,8.393,29.135,29.135,0,0,0-6.353,5.432,12.643,12.643,0,0,0-2.98,5.962,4.552,4.552,0,0,0,.367,3.151,3.373,3.373,0,0,0,2.262,1.422c3.228.724,9.109-.677,17.008-4.05a182.733,182.733,0,0,0,24.5-13.174c5.6-3.532,10.962-7.264,15.684-10.9A39.012,39.012,0,0,0,262.954,756.4Zm57.236-78.21c-.154.023-.738.2-2.151,1.574-2.578,2.5-6.665,8.587-11.229,16.636a10.113,10.113,0,0,0,1.332-.857,41.381,41.381,0,0,0,9.126-10.49,30.193,30.193,0,0,0,2.426-4.68A4.535,4.535,0,0,0,320.19,678.192Zm-14.475-16.381c24.624,3.465,51.217,7.905,60.95,9.779,7.9,1.521,24.178.406,45.84-3.138,17.869-2.924,37.36-7.237,48.5-10.732q2.37-.743,4.549-1.432c9.223-2.907,15.886-5.008,21.329-6.131,1.1-.227,2.133-.411,3.118-.552.233-1.159.484-2.312.723-3.4.3-1.351.55-2.518.712-3.448.09-.515.135-.873.156-1.122-.053.063-.111.136-.177.221-.5.651-1.993,1.523-4.557,2.665-2.37,1.056-5.536,2.289-9.41,3.666-7.967,2.832-17.869,5.9-27.883,8.64-11.283,3.087-21.708,5.481-30.149,6.924-10.041,1.717-17.012,2.055-20.719,1.007-8.51-2.406-14.112-8.391-18.2-12.761-2.439-2.606-4.368-4.666-5.775-4.666h-.013a1.624,1.624,0,0,0-1.207.64c-1.165,1.29-1.032,2.763-.892,4.323.135,1.5.275,3.054-.9,4.286-.855.9-2.331,1.506-4.513,1.861a52.682,52.682,0,0,1-10.079.311c-6.067-.249-13.165-.107-20.03.03-4.2.084-8.351.167-12.256.167-7.04,0-13.3-.269-17.733-1.286q-.187.914-.293,1.77A4.371,4.371,0,0,1,305.715,661.811Zm-58.162-3.319c.063.124.581.849,4.426,1.987a98.267,98.267,0,0,0,11.124,2.415,141.388,141.388,0,0,0,28.38,2.013,35.814,35.814,0,0,0,10.14-1.7,11.918,11.918,0,0,0,1.63-.736c-19.817-2.749-38.853-4.93-48.821-4.93a25.891,25.891,0,0,0-5.712.451C247.829,658.219,247.6,658.432,247.553,658.492ZM490.847,650.5c-.211,1.1-.4,2.2-.536,3.252-.343,2.65-.275,4.465.2,5.394.258.5,1.308,1.465,5.444,2.29a78.97,78.97,0,0,0,10.98,1.181c8.564.422,17.094.036,20.394-.579,2.306-.43,3.826-3.422,4.984-7.273-3.767,1.056-6.207.1-8.573-.826a11.332,11.332,0,0,0-6.188-1.1c-6.052.862-9.069.732-17.39-1.789A21.8,21.8,0,0,0,490.847,650.5ZM314.766,621.667a.519.519,0,0,1,.313.109c.394.289.174.809.055,1.089s-.317.682-.6,1.218c-.531,1-1.328,2.4-2.252,4.026-3.756,6.607-10.043,17.666-10.941,23.629a2.92,2.92,0,0,0,.713,2.5,8.778,8.778,0,0,0,4.294,2.214c2.247-9.288,9.708-22.036,14.347-29.962,1.1-1.878,2.049-3.5,2.72-4.721a12.239,12.239,0,0,0,1.029-2.122,4.141,4.141,0,0,0-1.088-.621c-.681-.309-1.634-.675-2.915-1.12-2.45-.85-5.854-1.9-9.8-3.116-7.35-2.268-17.147-5.291-26.939-8.959a150.6,150.6,0,0,0-24.236-1.995q-3.973.038-7.535.372,1,.508,2.072,1.032c5.623,2.736,12.594,5.65,20.161,8.426,7.327,2.688,14.846,5.1,21.172,6.785,6.775,1.807,12.037,2.761,15.22,2.761h.037c2.054,0,2.743-.416,2.971-.661C313.986,622.1,314.386,621.667,314.766,621.667Zm229.183,9.5a19.02,19.02,0,0,0-4.965,3.36c-1.641,1.823-2.617,6.62-3.65,11.7-.478,2.35-.966,4.749-1.543,6.974,4.572-1.795,11.229-5.949,13.306-11.311a8.712,8.712,0,0,0-.581-7.677A11.874,11.874,0,0,0,543.949,631.17Zm-156.981-1.561c11.3,0,25.575.771,39.461,1.521,11.217.606,22.815,1.232,32.565,1.432,10.894.224,18.31-.118,22.673-1.046a36.451,36.451,0,0,0,11.893-4.529,43.232,43.232,0,0,0,7.21-5.95,38.563,38.563,0,0,1,9.475-7.261c2.638-1.357,6.365-2.156,11.076-2.374a71.519,71.519,0,0,1,14.1.886c10.418,1.636,19.158,4.988,22.81,8.748a4.721,4.721,0,0,1,1.205,1.819,2.133,2.133,0,0,1,.1.771c2.45-.867,4.1-1.4,4.132-1.413a.492.492,0,0,1,.173-.024c.149.006,14.981.55,22.058-.254,1.264-.143,2.85-.533,3.232-1.581.457-1.252-.849-3.1-1.534-3.873-2.492-.142-26.9-1.529-30.833-1.674a1.824,1.824,0,0,1-1.786-.988c-.425-.945.014-2.439,1.341-4.568a28.647,28.647,0,0,1,1.975-2.758.5.5,0,0,1,.42-.181c.334.023,33.443,2.294,35.8,2.379a1.211,1.211,0,0,1,.977.538,4.019,4.019,0,0,1,.388,2.506,22.677,22.677,0,0,1-.512,3.229c-.313,1.417-.694,2.754-.918,3.5,3.617.218,21.665,1.272,27.554,1.01a2.689,2.689,0,0,0,2.172-1.142c1.063-1.45,1.391-4.292.948-8.22a45.008,45.008,0,0,0-.952-5.328c-36.565-2.611-106.062-7.32-109.751-6.615-1.118.214-2.715,1.472-4.882,3.848-1.992,2.184-4.263,5.1-6.459,7.911-3.3,4.226-6.7,8.595-9.539,11.033-2.255,1.939-6.294,2.864-12.711,2.912-5.569.041-12.332-.6-18.873-1.218-5.141-.487-10.456-.99-15.227-1.17h-.03c-16.694-.628-25.074-.944-40.8.065-10.631.682-28.779-1.124-42.03-2.442-6.478-.645-12.073-1.2-15.257-1.321a32.091,32.091,0,0,0-10.785,1.475c-3.011.972-5.4,2.334-6.393,3.643a1.684,1.684,0,0,0-.424,1.527c.278.865,3.6,2.7,14.3,4.089a217.245,217.245,0,0,0,34.708,1.207C382.168,629.646,384.5,629.609,386.968,629.609Zm150.243-3.9a35.234,35.234,0,0,1,6.88,4.263q3.033-1.541,7.421-3.318a72.229,72.229,0,0,1-8.151-.262C541.32,626.224,539.239,625.991,537.211,625.71ZM283.934,604.849c5.834.917,10.68,1.935,13.705,2.571.685.144,1.276.268,1.751.364,3.431.692,6.889,1.7,10.233,2.665,6.285,1.823,12.221,3.545,18.09,3.424,2.8-.056,5.318-1.887,7.707-5.6a65.616,65.616,0,0,0,5.214-11.136,46.847,46.847,0,0,1,3.013-6.741c3.687-5.9,3.62-12.468,3.086-17.881-5.129-.15-10.531-.548-16.017-1.193a136.407,136.407,0,0,1-15.637-2.662,37.242,37.242,0,0,1-4.892-1.484c-1.812-.732-2.2-1.279-2.342-1.626a1.021,1.021,0,0,1,.527-1.294c2.442-1.568,12.836-3.186,21-4.1,4.7-.524,9.132-.873,12.469-.982a41.19,41.19,0,0,1,4.255.033c1.661.128,2.072.41,2.268.7.1.146.37.666-.382,1.219-1.46,1.074-1.079,4.221-.6,8.206.085.707.174,1.445.258,2.208a108.815,108.815,0,0,0,21.488-1.33c8.638-1.583,14.074-4.619,16.156-9.026a11.255,11.255,0,0,0-.225-9.278c-1.748-.018-10.763-.1-20.309.121-5.369.122-9.964.314-13.731.571a16.04,16.04,0,0,1-5.892,2.7c-2.694.7-5.6.964-6.911.626-.724-.187-.905-.558-.931-.836-.052-.572.492-1.078,1.819-1.69,1.658-.764,5.515-1.359,11.517-1.78a4.719,4.719,0,0,0,.694-.8c.812-1.2.3-4.7-1.361-9.352-3.955-11.066-14.129-27.792-22.945-30.416a43.154,43.154,0,0,0-10.676-1.288.819.819,0,0,1-.113.849,1.831,1.831,0,0,1-1.535.434,13.558,13.558,0,0,1-2.713-.439c-1.848-.455-3.917.136-6.15,1.756a29.586,29.586,0,0,0-6.409,6.941,70.3,70.3,0,0,0-5.685,9.85,80.933,80.933,0,0,0-4.144,10.364,30.944,30.944,0,0,0-1.381,9.5,24.018,24.018,0,0,1,2.816.254,17.416,17.416,0,0,1,6.4,2.21,12.868,12.868,0,0,1,6.17,8.976,38.2,38.2,0,0,1,.305,9.422c-.056.573-.132,1.178-.236,1.785a27.777,27.777,0,0,1,1,3.434,34.632,34.632,0,0,1,.435,13.009c-.808,4.691-2.684,8.06-5.425,9.743a22.284,22.284,0,0,1-9.419,3.088,18.964,18.964,0,0,1-9.969-1.63c-3.659-1.756-8.252-5.684-9.351-14.423a94.466,94.466,0,0,1-.885-17.549c-7.913.6-14.874,1.209-16.863,1.386.632,2.915,3.386,16.048,2.7,20.345-.337,2.1-3.646,2.477-7.375,2.728a77.115,77.115,0,0,1,20.31,6.7C273.256,600.62,278.245,602.715,283.934,604.849Zm-23.444-2.023a145.286,145.286,0,0,1,18.994,1.376c-3.805-1.505-7.556-3.107-11.105-4.8-9.584-4.565-17.708-6.607-24.769-7.207-1.918.251-3.47.682-3.817,1.56-.316.8.375,2.135,2,3.866,1.479,1.576,4.4,3.537,8.545,5.746a87.423,87.423,0,0,1,9.124-.539C259.8,602.828,260.148,602.826,260.491,602.826Zm10.559-35.557a92.857,92.857,0,0,0,.871,17.5c.826,6.564,3.866,11.283,8.792,13.647,5.419,2.6,12.826,2.034,18.433-1.409,3.144-1.93,4.434-5.993,4.962-9.061a33.6,33.6,0,0,0-.425-12.619q-.209-.922-.457-1.768a5.074,5.074,0,0,1-2.109,3.22c-1.234.624-2.688.082-4.321-1.613a32.1,32.1,0,0,1-5.819-9.085C285.5,566.258,277.979,566.751,271.049,567.269Zm21.009-1.218a30.659,30.659,0,0,0,5.457,8.422c1.293,1.342,2.353,1.817,3.15,1.414.861-.435,1.547-1.9,1.959-4.126-1.277-3.36-3.039-5.439-4.9-5.635A50.528,50.528,0,0,0,292.058,566.05Zm16.727-.845c.087.154.817,1.071,6.307,2.433a133.237,133.237,0,0,0,15.51,2.668c5.491.653,10.9,1.057,16.026,1.211-.078-.711-.161-1.4-.241-2.061a38.7,38.7,0,0,1-.43-5.522c.06-1.728.484-2.857,1.334-3.537-.512-.141-1.942-.347-5.837-.2-3.353.126-7.737.482-12.342,1-10.251,1.159-18.368,2.727-20.2,3.9A.6.6,0,0,0,308.786,565.205Zm-14.151-.192c1.338,0,2.428.036,3.2.118,1.529.162,2.984,1.265,4.209,3.189a14.949,14.949,0,0,1,.847,1.534l.006-.063a37.126,37.126,0,0,0-.3-9.157,11.882,11.882,0,0,0-5.7-8.287,17.989,17.989,0,0,0-8.679-2.314,40.784,40.784,0,0,0,1.456,9.438,43.88,43.88,0,0,0,1.944,5.59C292.723,565.029,293.735,565.013,294.635,565.013Zm-23.3-.541q-.118.863-.2,1.782c6.72-.5,13.981-.977,19.422-1.161a44.819,44.819,0,0,1-1.838-5.359,41.758,41.758,0,0,1-1.493-9.718,31.794,31.794,0,0,0-4.68.372,12.675,12.675,0,0,0-4.213,1.367,8.342,8.342,0,0,1,.374,1.264,18.587,18.587,0,0,1,.069,6.241c-.148,1.032-.576,3.485-1.359,3.986-.135.087-.5.321-4.212.932C272.612,564.275,271.985,564.373,271.332,564.472Zm-19.571.418c.188.093,1.006.345,4.206.215,2.178-.089,5.077-.337,8.384-.718,2.235-.257,4.308-.532,6.1-.794q.167-1.064.388-2.045a17.962,17.962,0,0,1,3.815-8.123,11.882,11.882,0,0,1,2.379-2.053,2.373,2.373,0,0,0-1.712-1.217,2.778,2.778,0,0,1-1.934-1.2c-1.007-1.423-1.3-4.094-.889-8.165.341-3.4,1.116-7.252,1.738-10.35q.209-1.038.39-1.959c.7-3.6,3.387-9.435,7.809-14.376q.247-.276.509-.557c-8.055,1.975-14.193,4.509-17.273,7.235-2.287,2.023-4.454,5.5-6.442,10.337a96.08,96.08,0,0,0-4.438,14.4c-1.343,5.732-2.111,10.67-2.45,13.1A41.288,41.288,0,0,0,251.76,564.89Zm25.7-12.607c-2.777,1.87-4.639,5.011-5.644,9.484q-.181.807-.326,1.671a40.21,40.21,0,0,0,5.379-1.032,9.729,9.729,0,0,0,.976-3.76,15.732,15.732,0,0,0-.282-6.051Q277.512,552.434,277.458,552.283Zm60.951,2.667a10.513,10.513,0,0,0,3.7-.06,21.145,21.145,0,0,0,6.922-2.141c-4.9.4-8.123.923-9.515,1.565A5.18,5.18,0,0,0,338.409,554.95Zm-53.644-41.836c-.573.556-1.1,1.112-1.587,1.654-4.3,4.8-6.9,10.439-7.572,13.9q-.181.926-.391,1.965c-1.195,5.946-3,14.933-1.013,17.74a1.79,1.79,0,0,0,1.258.792,3.337,3.337,0,0,1,2.43,1.7,13.694,13.694,0,0,1,4.5-1.461,33.092,33.092,0,0,1,4.812-.387,31.927,31.927,0,0,1,1.428-9.79,81.957,81.957,0,0,1,4.2-10.495,71.308,71.308,0,0,1,5.768-9.993c2.517-3.576,5.975-7.517,9.66-8.824-4.136.216-8.5.644-12.853,1.266C291.618,511.716,288.05,512.369,284.765,513.114Zm15.073-6.758a21,21,0,0,0-13.594,5.414c2.863-.6,5.891-1.138,9.015-1.583a139.529,139.529,0,0,1,18.017-1.435,20.178,20.178,0,0,0-2.044-.766,38.484,38.484,0,0,0-11.192-1.628Zm12.868,3.4a7.126,7.126,0,0,0,2.615.258,2.07,2.07,0,0,0-.283-.266q-.711-.006-1.448,0Q313.151,509.752,312.707,509.759Z" transform="translate(-63.947 -498.728)" fill="#363435"></path></g></svg>